<?xml version="1.0" encoding="utf-8"?>
<!-- Generator: Adobe Illustrator 16.0.0, SVG Export Plug-In . SVG Version: 6.00 Build 0)  -->
<!DOCTYPE svg PUBLIC "-//W3C//DTD SVG 1.1//EN" "http://www.w3.org/Graphics/SVG/1.1/DTD/svg11.dtd">
<svg version="1.1" id="Layer_1" xmlns="http://www.w3.org/2000/svg" xmlns:xlink="http://www.w3.org/1999/xlink" x="0px" y="0px"
	 width="50px" height="64px" viewBox="0 0 50 64" enable-background="new 0 0 50 64" xml:space="preserve">
<text transform="matrix(1 0 0 1 2.0737 58.2285)" font-family="'Helvetica'" font-size="11">Astrology</text>
<g id="_x36_4px-Line_1_">
	<path id="Shape_22_" d="M15.358,34.462c1.026,0,1.914-0.565,2.397-1.393c0.018,0,0.035,0,0.054,0c0.57,0,1.196-0.083,1.859-0.245
		c0.373-0.092,0.601-0.468,0.509-0.841c-0.092-0.373-0.469-0.605-0.842-0.51c-0.429,0.106-0.824,0.158-1.198,0.184
		c-0.013-1.516-1.242-2.743-2.757-2.756c0.023-0.347,0.068-0.711,0.16-1.104c0.086-0.375-0.144-0.749-0.519-0.836
		c-0.374-0.086-0.748,0.146-0.835,0.519c-0.146,0.626-0.219,1.218-0.219,1.757c0,0.018,0.001,0.031,0.001,0.047
		c-0.827,0.482-1.392,1.37-1.392,2.397C12.577,33.215,13.825,34.462,15.358,34.462L15.358,34.462z M15.358,30.29
		c0.767,0,1.391,0.623,1.391,1.392c0,0.766-0.624,1.388-1.391,1.388c-0.767,0-1.39-0.622-1.39-1.388
		C13.968,30.913,14.592,30.29,15.358,30.29L15.358,30.29z"/>
	<path id="Shape_1_" d="M33.943,19.733c-0.26-0.152-0.575-0.112-0.793,0.069c-0.762-2.857-2.996-5.111-5.842-5.896
		c0.054-0.031,0.109-0.066,0.164-0.096c0.336-0.188,0.457-0.61,0.271-0.946c-0.188-0.335-0.609-0.458-0.946-0.27
		c-0.54,0.299-1.09,0.641-1.64,1.008c-0.021,0-0.042-0.003-0.064-0.003c-4.601,0-8.345,3.742-8.345,8.344
		c0,0.021,0.003,0.041,0.003,0.062c-0.322,0.481-0.626,0.967-0.898,1.447c-0.189,0.333-0.072,0.758,0.261,0.949
		c0.108,0.062,0.227,0.09,0.343,0.09c0.238,0,0.467-0.123,0.596-0.341c0.779,2.836,3.017,5.068,5.857,5.837
		c-0.266,0.211-0.355,0.583-0.181,0.884c0.128,0.225,0.362,0.35,0.603,0.35c0.117,0,0.237-0.031,0.346-0.092
		c0.443-0.258,0.896-0.543,1.347-0.844c0.024,0,0.046,0.004,0.068,0.004c4.602,0,8.345-3.745,8.345-8.346
		c0-0.023-0.004-0.045-0.004-0.067c0.268-0.4,0.524-0.8,0.756-1.193C34.386,20.354,34.272,19.928,33.943,19.733L33.943,19.733z
		 M25.525,28.876c-0.235-0.191-0.571-0.222-0.832-0.04c-0.019,0.014-0.039,0.026-0.058,0.038c-3.621-0.237-6.496-3.251-6.496-6.93
		c0-3.834,3.12-6.954,6.956-6.954c3.677,0,6.689,2.873,6.929,6.491c-0.047,0.067-0.088,0.134-0.135,0.202
		c-0.212,0.296-0.148,0.696,0.125,0.926C31.694,25.991,28.938,28.666,25.525,28.876L25.525,28.876z"/>
	<path id="Shape_2_" d="M30.999,12.364c0.047,0,0.094-0.004,0.143-0.015c0.685-0.142,1.304-0.179,1.827-0.099
		c0.376,0.051,0.733-0.206,0.79-0.585c0.059-0.379-0.205-0.734-0.585-0.791c-0.686-0.102-1.47-0.063-2.317,0.114
		c-0.377,0.078-0.616,0.446-0.538,0.823C30.386,12.139,30.676,12.364,30.999,12.364L30.999,12.364z"/>
	<path id="Shape_3_" d="M29.302,24.828c-0.212,0.226-0.429,0.449-0.651,0.672c-0.265,0.264-0.529,0.521-0.798,0.768
		c-0.278,0.263-0.294,0.704-0.032,0.983c0.138,0.147,0.323,0.221,0.509,0.221c0.17,0,0.341-0.062,0.475-0.188
		c0.276-0.26,0.555-0.526,0.827-0.8c0.232-0.231,0.461-0.466,0.682-0.701c0.265-0.279,0.251-0.721-0.028-0.984
		C30.006,24.536,29.565,24.548,29.302,24.828L29.302,24.828z"/>
	<path id="Shape_4_" d="M35.079,17.193c0.058,0.016,0.119,0.023,0.178,0.023c0.308,0,0.59-0.206,0.673-0.518
		c0.193-0.736,0.292-1.424,0.292-2.047c0-0.073-0.001-0.146-0.004-0.218c-0.014-0.384-0.344-0.696-0.721-0.668
		c-0.384,0.014-0.683,0.337-0.67,0.721l0.003,0.165c0,0.503-0.082,1.072-0.245,1.692C34.484,16.715,34.708,17.096,35.079,17.193
		L35.079,17.193z"/>
	<path id="Shape_5_" d="M42.4,15.299c0.082,0.032,0.166,0.046,0.25,0.046c0.279,0,0.542-0.169,0.647-0.446
		c0.269-0.696,0.496-1.383,0.683-2.042c0.104-0.37-0.115-0.753-0.483-0.856c-0.371-0.104-0.754,0.113-0.859,0.482
		c-0.168,0.617-0.386,1.26-0.637,1.916C41.862,14.759,42.042,15.162,42.4,15.299L42.4,15.299z"/>
	<path id="Shape_6_" d="M6.296,35.286c-0.381,0.047-0.651,0.395-0.604,0.776c0.103,0.821,0.32,1.565,0.645,2.218
		c0.122,0.243,0.368,0.385,0.623,0.385c0.105,0,0.211-0.023,0.312-0.073c0.342-0.173,0.481-0.589,0.31-0.932
		c-0.255-0.512-0.427-1.107-0.51-1.771C7.026,35.509,6.672,35.238,6.296,35.286L6.296,35.286z"/>
	<path id="Shape_7_" d="M9.437,23.855c-0.373,0.624-0.724,1.245-1.043,1.851c-0.179,0.34-0.049,0.761,0.29,0.94
		c0.104,0.055,0.214,0.08,0.324,0.08c0.25,0,0.492-0.135,0.615-0.371c0.307-0.583,0.646-1.182,1.007-1.784
		c0.197-0.329,0.09-0.756-0.239-0.954C10.062,23.42,9.636,23.524,9.437,23.855L9.437,23.855z"/>
	<path id="Shape_8_" d="M21.326,12.136c0.528-0.452,1.058-0.889,1.588-1.309c0.301-0.238,0.353-0.676,0.114-0.977
		s-0.675-0.352-0.977-0.114c-0.545,0.431-1.088,0.88-1.631,1.346c-0.291,0.25-0.325,0.688-0.075,0.981
		c0.137,0.159,0.332,0.242,0.527,0.242C21.034,12.306,21.194,12.25,21.326,12.136L21.326,12.136z"/>
	<path id="Shape_9_" d="M16.357,16.635c0.186,0,0.372-0.074,0.508-0.22c0.431-0.46,0.873-0.917,1.33-1.375l0.104-0.105
		c0.273-0.27,0.275-0.71,0.004-0.983c-0.271-0.272-0.71-0.274-0.984-0.004l-0.111,0.111c-0.465,0.466-0.919,0.935-1.36,1.406
		c-0.262,0.28-0.247,0.72,0.033,0.982C16.016,16.572,16.186,16.635,16.357,16.635L16.357,16.635z"/>
	<path id="Shape_10_" d="M23.417,35.822c-0.59,0.375-1.182,0.734-1.757,1.057c-0.333,0.192-0.45,0.617-0.26,0.949
		c0.129,0.227,0.363,0.353,0.606,0.353c0.117,0,0.234-0.027,0.343-0.092c0.596-0.338,1.208-0.706,1.817-1.095
		c0.323-0.208,0.418-0.637,0.212-0.962C24.169,35.708,23.739,35.614,23.417,35.822L23.417,35.822z"/>
	<path id="Shape_11_" d="M13.081,18.656c-0.448,0.56-0.877,1.118-1.289,1.677c-0.228,0.309-0.162,0.744,0.147,0.972
		c0.124,0.091,0.268,0.135,0.412,0.135c0.213,0,0.424-0.098,0.56-0.282c0.4-0.543,0.819-1.088,1.255-1.633
		c0.24-0.3,0.191-0.738-0.108-0.978C13.76,18.308,13.322,18.357,13.081,18.656L13.081,18.656z"/>
	<path id="Shape_12_" d="M35.186,3.508c-0.101-0.37-0.479-0.589-0.853-0.49c-0.496,0.134-1.01,0.301-1.532,0.484
		c-0.51-0.623-1.275-1.03-2.143-1.03c-1.534,0-2.782,1.248-2.782,2.782c0,0.322,0.067,0.627,0.168,0.915
		c-0.219-0.162-0.521-0.188-0.771-0.042c-0.595,0.351-1.198,0.729-1.796,1.124c-0.321,0.212-0.41,0.643-0.199,0.963
		c0.132,0.203,0.356,0.314,0.581,0.314c0.13,0,0.265-0.038,0.382-0.116c0.579-0.382,1.164-0.748,1.74-1.087
		c0.217-0.127,0.326-0.356,0.33-0.592c0.494,0.78,1.358,1.302,2.347,1.302c1.533,0,2.781-1.248,2.781-2.781
		c0-0.166-0.02-0.327-0.048-0.484c0.443-0.154,0.881-0.296,1.303-0.409C35.065,4.26,35.283,3.878,35.186,3.508L35.186,3.508z
		 M30.658,6.646c-0.767,0-1.391-0.625-1.391-1.391c0-0.767,0.624-1.391,1.391-1.391s1.391,0.624,1.391,1.391
		C32.049,6.021,31.425,6.646,30.658,6.646L30.658,6.646z"/>
	<path id="Shape_13_" d="M42.827,6.745c0.194,0.542,0.308,1.163,0.34,1.842c0.017,0.372,0.324,0.663,0.694,0.663
		c0.01,0,0.021,0,0.032,0c0.384-0.018,0.681-0.344,0.661-0.728c-0.036-0.817-0.178-1.573-0.419-2.245
		c-0.129-0.362-0.525-0.55-0.888-0.42C42.885,5.985,42.698,6.383,42.827,6.745L42.827,6.745z"/>
	<path id="Shape_14_" d="M12.862,40.721c0-0.383-0.339-0.695-0.724-0.695c-0.667,0-1.283-0.074-1.829-0.218
		c-0.372-0.103-0.752,0.118-0.852,0.491c-0.099,0.37,0.122,0.752,0.493,0.851c0.662,0.177,1.397,0.269,2.205,0.269h0.005
		l0.034-0.697v0.697C12.579,41.415,12.862,41.105,12.862,40.721L12.862,40.721z"/>
	<path id="Shape_15_" d="M28.379,32.163c-0.533,0.448-1.068,0.876-1.604,1.291c-0.305,0.232-0.36,0.672-0.128,0.976
		c0.139,0.177,0.345,0.27,0.552,0.27c0.149,0,0.298-0.047,0.424-0.145c0.552-0.423,1.101-0.865,1.649-1.326
		c0.294-0.245,0.333-0.684,0.087-0.979C29.113,31.957,28.674,31.917,28.379,32.163L28.379,32.163z"/>
	<path id="Shape_16_" d="M32.888,27.936c-0.291,0.305-0.588,0.609-0.891,0.912c-0.186,0.186-0.373,0.369-0.562,0.553
		c-0.274,0.268-0.28,0.708-0.013,0.983c0.136,0.139,0.317,0.211,0.499,0.211c0.174,0,0.348-0.066,0.483-0.198
		c0.191-0.186,0.384-0.376,0.575-0.567c0.311-0.309,0.614-0.622,0.914-0.933c0.264-0.276,0.255-0.717-0.023-0.983
		C33.595,27.649,33.153,27.66,32.888,27.936L32.888,27.936z"/>
	<path id="Shape_17_" d="M7.549,29.187c-0.361-0.128-0.759,0.062-0.888,0.422c-0.25,0.707-0.459,1.402-0.62,2.067
		c-0.09,0.374,0.14,0.751,0.513,0.84c0.055,0.013,0.11,0.019,0.164,0.019c0.314,0,0.598-0.214,0.675-0.533
		c0.15-0.617,0.345-1.266,0.578-1.929C8.1,29.712,7.912,29.315,7.549,29.187L7.549,29.187z"/>
	<path id="Shape_18_" d="M39.451,20.814c0.116,0.072,0.241,0.105,0.368,0.105c0.23,0,0.458-0.116,0.592-0.328
		c0.38-0.611,0.741-1.228,1.074-1.832c0.186-0.336,0.062-0.759-0.274-0.944c-0.337-0.186-0.758-0.063-0.944,0.273
		c-0.321,0.583-0.67,1.178-1.038,1.768C39.026,20.183,39.126,20.611,39.451,20.814L39.451,20.814z"/>
	<path id="Shape_19_" d="M36.159,25.991c0.202,0,0.399-0.085,0.538-0.252c0.454-0.552,0.891-1.106,1.309-1.661
		c0.232-0.306,0.172-0.742-0.135-0.974s-0.741-0.17-0.975,0.135c-0.406,0.539-0.833,1.079-1.272,1.616
		c-0.246,0.296-0.204,0.735,0.094,0.979C35.847,25.941,36.004,25.991,36.159,25.991L36.159,25.991z"/>
	<path id="Shape_20_" d="M16.293,40.719c0.067,0,0.136-0.013,0.204-0.033c0.657-0.2,1.337-0.443,2.023-0.722
		c0.355-0.145,0.526-0.553,0.382-0.905c-0.145-0.358-0.551-0.531-0.907-0.384c-0.647,0.263-1.288,0.493-1.905,0.681
		c-0.367,0.112-0.573,0.502-0.462,0.868C15.72,40.522,15.996,40.719,16.293,40.719L16.293,40.719z"/>
	<path id="Shape_21_" d="M40.418,4.259c0.085,0.033,0.169,0.047,0.253,0.047c0.276,0,0.541-0.168,0.648-0.443
		c0.14-0.359-0.038-0.761-0.396-0.9c-0.668-0.26-1.423-0.42-2.241-0.472c-0.384-0.015-0.716,0.267-0.739,0.65
		c-0.023,0.383,0.267,0.714,0.648,0.739C39.27,3.924,39.885,4.052,40.418,4.259L40.418,4.259z"/>
</g>
</svg>
