<?xml version="1.0" encoding="utf-8"?>
<!-- Generator: Adobe Illustrator 16.0.0, SVG Export Plug-In . SVG Version: 6.00 Build 0)  -->
<!DOCTYPE svg PUBLIC "-//W3C//DTD SVG 1.1//EN" "http://www.w3.org/Graphics/SVG/1.1/DTD/svg11.dtd">
<svg version="1.1" id="Layer_1" xmlns="http://www.w3.org/2000/svg" xmlns:xlink="http://www.w3.org/1999/xlink" x="0px" y="0px"
	 width="64px" height="64px" viewBox="0 0 64 64" enable-background="new 0 0 64 64" xml:space="preserve">
<text transform="matrix(1 0 0 1 11.8267 58.709)" font-family="'Helvetica'" font-size="11">Drawing</text>
<g id="_x36_4px-Line">
	<path id="Shape" d="M11.637,43.084c8.765,0,10.8-0.493,13.606-3.298c2.737-2.738,1.843-6.514,1.357-7.955
		c1.781-1.33,8.34-6.353,14.777-12.79c3.219-3.218,13.487-13.954,10.487-16.953C49.165-0.61,40.287,7.46,35.235,12.512
		c-6.542,6.542-11.043,14.098-12.147,16.034c-1.312-0.156-4.606-0.313-6.619,1.702c-2.471,2.47-2.702,5.445-2.888,7.833
		c-0.214,2.763-0.434,3.464-1.945,3.464c-0.425,0-0.77,0.344-0.77,0.77S11.212,43.084,11.637,43.084L11.637,43.084z M36.324,13.6
		C45.721,4.203,50.119,2.517,50.777,3.177c0.748,0.748-1.562,5.851-10.488,14.777c-3.752,3.751-7.537,7.01-10.38,9.327l-2.593-2.592
		C29.432,21.546,32.523,17.401,36.324,13.6L36.324,13.6z M26.45,25.999l2.256,2.256c-1.339,1.069-2.373,1.856-2.955,2.292
		l-1.293-1.293C24.809,28.638,25.488,27.485,26.45,25.999L26.45,25.999z M15.117,38.199c0.175-2.248,0.373-4.796,2.441-6.865
		c1.656-1.656,4.736-1.35,5.575-1.229l1.889,1.888c0.266,0.68,1.527,4.311-0.867,6.705c-2.142,2.14-3.751,2.714-9.676,2.824
		C14.93,40.604,15.024,39.392,15.117,38.199L15.117,38.199z"/>
	<path id="Shape_2_" d="M20.441,31.675c-0.191,0.087-1.883,0.89-2.632,2.263c-0.964,1.769-0.814,3.656-0.807,3.735
		c0.035,0.4,0.37,0.701,0.766,0.701c0.021,0,0.042,0,0.064-0.002c0.423-0.035,0.737-0.406,0.704-0.83
		c-0.001-0.015-0.112-1.518,0.624-2.868c0.428-0.783,1.533-1.422,1.922-1.602c0.386-0.177,0.556-0.634,0.377-1.02
		C21.282,31.667,20.826,31.5,20.441,31.675L20.441,31.675z"/>
</g>
</svg>
