<?xml version="1.0" encoding="utf-8"?>
<!-- Generator: Adobe Illustrator 16.0.0, SVG Export Plug-In . SVG Version: 6.00 Build 0)  -->
<!DOCTYPE svg PUBLIC "-//W3C//DTD SVG 1.1//EN" "http://www.w3.org/Graphics/SVG/1.1/DTD/svg11.dtd">
<svg version="1.1" id="Layer_1" xmlns="http://www.w3.org/2000/svg" xmlns:xlink="http://www.w3.org/1999/xlink" x="0px" y="0px"
	 width="118.334px" height="35px" viewBox="0 0 118.334 35" enable-background="new 0 0 118.334 35" xml:space="preserve">
<g>
	<g>
		<g>
			<linearGradient id="SVGID_1_" gradientUnits="userSpaceOnUse" x1="41.3975" y1="7.2119" x2="1.4506" y2="27.577">
				<stop  offset="0" style="stop-color:#ED1E79"/>
				<stop  offset="1" style="stop-color:#662D91"/>
			</linearGradient>
			<circle fill="url(#SVGID_1_)" cx="14.845" cy="20.746" r="3.775"/>
			<linearGradient id="SVGID_2_" gradientUnits="userSpaceOnUse" x1="44.2852" y1="12.8652" x2="4.3337" y2="33.2326">
				<stop  offset="0" style="stop-color:#ED1E79"/>
				<stop  offset="1" style="stop-color:#662D91"/>
			</linearGradient>
			<circle fill="url(#SVGID_2_)" cx="28.509" cy="20.905" r="2.86"/>
			<linearGradient id="SVGID_3_" gradientUnits="userSpaceOnUse" x1="41.8262" y1="8.041" x2="1.8747" y2="28.4085">
				<stop  offset="0" style="stop-color:#ED1E79"/>
				<stop  offset="1" style="stop-color:#662D91"/>
			</linearGradient>
			<path fill="url(#SVGID_3_)" d="M30.456,10.968c-3.154,0-5.917,1.66-7.479,4.153c-1.536-4.046-5.438-6.925-10.024-6.928
				C7.031,8.196,2.227,13,2.227,18.926c0,5.925,4.805,10.728,10.727,10.728c2.313,0,4.447-0.739,6.2-1.981l2.811,4.444
				c0.177,0.284,0.487,0.453,0.82,0.453c0.013,0,0.026,0,0.038,0c0.345-0.014,0.66-0.207,0.822-0.515l2.438-4.589
				c1.292,0.739,2.781,1.166,4.374,1.167c4.883-0.001,8.833-3.954,8.837-8.833C39.289,14.921,35.339,10.968,30.456,10.968z
				 M4.432,18.926c0.008-4.708,3.815-8.517,8.521-8.526c4.71,0.009,8.517,3.818,8.524,8.526c-0.008,4.707-3.814,8.516-8.524,8.523
				C8.247,27.442,4.439,23.633,4.432,18.926z M22.713,29.665l-2.065-3.268c0.765-0.787,1.406-1.695,1.899-2.684
				c0.488,0.981,1.151,1.857,1.953,2.592L22.713,29.665z M30.456,26.429c-3.659-0.008-6.618-2.967-6.623-6.628
				c0.005-3.661,2.964-6.621,6.623-6.628c3.661,0.007,6.624,2.967,6.631,6.628C37.08,23.462,34.117,26.421,30.456,26.429z"/>
			<linearGradient id="SVGID_4_" gradientUnits="userSpaceOnUse" x1="11.8926" y1="2.4297" x2="11.8926" y2="2.4297">
				<stop  offset="0" style="stop-color:#ED1E79"/>
				<stop  offset="1" style="stop-color:#662D91"/>
			</linearGradient>
			<path fill="url(#SVGID_4_)" d="M11.893,2.43"/>
			<g>
				<linearGradient id="SVGID_5_" gradientUnits="userSpaceOnUse" x1="36.5244" y1="-2.3574" x2="-3.4276" y2="18.0103">
					<stop  offset="0" style="stop-color:#ED1E79"/>
					<stop  offset="1" style="stop-color:#662D91"/>
				</linearGradient>
				<path fill="url(#SVGID_5_)" d="M22.834,9.938c-2.826-3.359-7.191-4.545-9.178-4.888l0,0c-0.658-0.118-1.018-0.143-1.019-0.143
					l0,0h0.001c-0.608-0.048-1.062-0.575-1.02-1.184l0,0c0.049-0.609,0.579-1.064,1.186-1.018l0,0
					c0.103,0.028,6.49,0.45,11.033,5.067l0,0c1.32-0.853,4.074-2.364,7.36-2.578l0,0c0.606-0.036,1.129,0.429,1.165,1.035l0,0
					c0.035,0.609-0.429,1.129-1.037,1.167l0,0c-2.777,0.155-5.369,1.609-6.441,2.326l0,0c-0.359,0.235-0.53,0.37-0.535,0.37l0,0
					c-0.198,0.158-0.438,0.233-0.677,0.233l0,0C23.361,10.327,23.051,10.197,22.834,9.938L22.834,9.938z"/>
			</g>
		</g>
	</g>
	<g>
		<path fill="#662D91" d="M45.936,19.972c0-5.189,3.823-8.732,8.684-8.732c2.986,0,5.062,1.418,6.402,3.341l-1.745,0.987
			c-0.965-1.442-2.734-2.455-4.657-2.455c-3.696,0-6.505,2.81-6.505,6.859c0,4,2.809,6.859,6.505,6.859
			c1.923,0,3.692-1.037,4.657-2.455l1.771,0.961c-1.418,1.949-3.441,3.367-6.428,3.367C49.759,28.706,45.936,25.161,45.936,19.972z"
			/>
		<path fill="#662D91" d="M67.78,28.402l-6.809-16.883h2.403l5.695,14.58l5.695-14.58h2.404l-6.782,16.883H67.78z"/>
		<path fill="#662D91" d="M78.03,19.972c0-4.885,3.114-8.732,8.024-8.732c4.885,0,8.023,3.847,8.023,8.732s-3.139,8.733-8.023,8.733
			C81.145,28.706,78.03,24.857,78.03,19.972z M93.193,19.972c0-4.632-2.812-7.973-7.139-7.973c-4.379,0-7.139,3.341-7.139,7.973
			c0,4.582,2.76,7.974,7.139,7.974C90.382,27.946,93.193,24.554,93.193,19.972z"/>
		<path fill="#662D91" d="M107.316,28.402l-3.696-11.088l-3.695,11.088h-0.607l-4.05-12.226h0.836l3.542,11.035l3.67-11.035h0.608
			l3.671,11.035l3.544-11.035h0.834l-4.05,12.226H107.316z"/>
		<path fill="#662D91" d="M113.695,28.402V11.519h0.756v16.883H113.695z"/>
	</g>
</g>
</svg>
