<?xml version="1.0" encoding="utf-8"?>
<!-- Generator: Adobe Illustrator 16.0.0, SVG Export Plug-In . SVG Version: 6.00 Build 0)  -->
<!DOCTYPE svg PUBLIC "-//W3C//DTD SVG 1.1//EN" "http://www.w3.org/Graphics/SVG/1.1/DTD/svg11.dtd">
<svg version="1.1" id="Layer_1" xmlns="http://www.w3.org/2000/svg" xmlns:xlink="http://www.w3.org/1999/xlink" x="0px" y="0px"
	 width="64px" height="64px" viewBox="0 0 64 64" enable-background="new 0 0 64 64" xml:space="preserve">
<text transform="matrix(1 0 0 1 9.2026 58.709)" font-family="'Helvetica'" font-size="11">Travelling</text>
<g id="_x36_4px-Line">
	<path id="Shape" d="M51.044,8.298c-1.666-0.617-4.44-0.193-7.242,1.113l-5.057,2.355L20.729,1.602
		c-0.208-0.118-0.459-0.134-0.682-0.043L15.33,3.471c-0.251,0.102-0.433,0.326-0.479,0.594c-0.046,0.267,0.049,0.54,0.25,0.721
		l13.245,11.825l-5.962,2.777l-8.256-5.913c-0.247-0.179-0.575-0.198-0.842-0.047l-2.761,1.551
		c-0.359,0.203-0.502,0.648-0.325,1.021l6.318,13.345c0.135,0.284,0.417,0.45,0.711,0.45c0.111,0,0.224-0.024,0.331-0.074
		l29.271-13.639c4.028-1.877,6.42-4.725,5.564-6.624C52.232,9.098,51.867,8.604,51.044,8.298L51.044,8.298z M46.167,14.659
		L17.605,27.967l-5.671-11.976l1.685-0.946l8.226,5.89c0.231,0.166,0.533,0.193,0.79,0.074l7.457-3.476
		c0.24-0.112,0.408-0.336,0.445-0.598c0.039-0.261-0.057-0.525-0.253-0.701L17.09,4.454l3.197-1.295l18.039,10.176
		c0.221,0.124,0.488,0.135,0.718,0.027l5.42-2.526c2.729-1.269,4.996-1.448,6.034-1.064c0.243,0.091,0.409,0.21,0.466,0.334
		C51.257,10.755,49.83,12.952,46.167,14.659L46.167,14.659z"/>
	<path id="Shape_2_" d="M51.78,40.799H10.912c-0.435,0-0.786,0.352-0.786,0.786s0.352,0.786,0.786,0.786H51.78
		c0.435,0,0.786-0.352,0.786-0.786S52.215,40.799,51.78,40.799L51.78,40.799z"/>
</g>
</svg>
